<svg id="SvgjsSvg1029" width="288" height="288" xmlns="http://www.w3.org/2000/svg" version="1.1" xmlns:xlink="http://www.w3.org/1999/xlink" xmlns:svgjs="http://svgjs.com/svgjs"><defs id="SvgjsDefs1030"></defs><g id="SvgjsG1031"><svg xmlns="http://www.w3.org/2000/svg" viewBox="0 0 24 24" width="288" height="288"><g data-name="Layer 2" fill="#ffffff" class="color000 svgShape"><g data-name="person-add" fill="#ffffff" class="color000 svgShape"><rect width="24" height="24" opacity="0" fill="#ffffff" class="color000 svgShape"></rect><path d="M21 6h-1V5a1 1 0 0 0-2 0v1h-1a1 1 0 0 0 0 2h1v1a1 1 0 0 0 2 0V8h1a1 1 0 0 0 0-2zM10 11a4 4 0 1 0-4-4 4 4 0 0 0 4 4zm0-6a2 2 0 1 1-2 2 2 2 0 0 1 2-2zM10 13a7 7 0 0 0-7 7 1 1 0 0 0 2 0 5 5 0 0 1 10 0 1 1 0 0 0 2 0 7 7 0 0 0-7-7z" fill="#ffffff" class="color000 svgShape"></path></g></g></svg></g></svg>