<svg xmlns="http://www.w3.org/2000/svg" data-name="Layer 1" viewBox="0 0 512 512"><rect width="40.85" height="44.31" x="355.63" y="353.9" fill="#676e87" transform="rotate(-45 376.048 376.056)"/><path fill="#595f74" d="M374.83,346l-10.78,10.78,3.67,3.67a25.61,25.61,0,0,1,0,36.2h0l9.56,9.56,28.88-28.88Z"/><path fill="#ffcd85" d="M493.92,493.92h0a36.13,36.13,0,0,1-51.1,0l-65.54-65.54a15.7,15.7,0,0,1,0-22.22l28.88-28.88a15.7,15.7,0,0,1,22.22,0l65.54,65.54A36.13,36.13,0,0,1,493.92,493.92Z"/><path fill="#ffc166" d="M493.92,442.82l-65.54-65.54a15.7,15.7,0,0,0-22.22,0l-3.89,3.89,61.65,61.65a36.13,36.13,0,0,1,0,51.1h0a36.15,36.15,0,0,1-10.55,7.32,36.15,36.15,0,0,0,40.55-7.32h0A36.13,36.13,0,0,0,493.92,442.82Z"/><circle cx="214.59" cy="214.59" r="207.19" fill="#b3e0ff" transform="rotate(-45 214.588 214.595)"/><circle cx="214.59" cy="214.59" r="166.73" fill="#d9f0ff"/><path fill="#f66" d="M197,234l-23.9,4.55a47.59,47.59,0,0,0-38.69,46.75v14.47a17.89,17.89,0,0,0,17.89,17.89h124.5a17.89,17.89,0,0,0,17.89-17.89V285.31a47.59,47.59,0,0,0-38.68-46.75L232.12,234"/><path fill="#ff4e4e" d="M256.05,238.56,232.12,234h-30l23.91,4.55a47.59,47.59,0,0,1,38.68,46.75v14.47a17.89,17.89,0,0,1-17.89,17.89h30a17.89,17.89,0,0,0,17.89-17.89V285.31A47.59,47.59,0,0,0,256.05,238.56Z"/><path fill="#ffcd85" d="M197,226.32v14.55a17.56,17.56,0,0,0,17.55,17.56h0a17.55,17.55,0,0,0,17.55-17.56v-14.6"/><path fill="#ffc166" d="M217.14,226.29v14.58a17.54,17.54,0,0,1-10,15.86,17.52,17.52,0,0,0,25-15.86v-14.6Z"/><path fill="#676e87" d="M256.57,159.52V126.73c0-7.35-6-15.22-13.32-15.22H172.61v21.38a13.32,13.32,0,0,0,13.32,13.31"/><path fill="#595f74" d="M243.25,111.51H218.83c7.35,0,13.31,7.87,13.31,15.22v28.19l24.43,4.6V126.73C256.57,119.38,250.61,111.51,243.25,111.51Z"/><path fill="#ffcd85" d="M214.59,146.2h0a42,42,0,0,1,42,42v32.76a9.22,9.22,0,0,1-9.22,9.22H181.83a9.22,9.22,0,0,1-9.22-9.22V188.18A42,42,0,0,1,214.59,146.2Z" transform="rotate(-180 214.59 188.18)"/><path fill="#ffc166" d="M247.35,146.2H224.44a9.22,9.22,0,0,1,9.22,9.22v32.76a42,42,0,0,1-30.52,40.38,42,42,0,0,0,11.45,1.6h0a42,42,0,0,0,42-42V155.42A9.22,9.22,0,0,0,247.35,146.2Z"/></svg>