<svg xmlns="http://www.w3.org/2000/svg" data-name="Filled Outline" viewBox="0 0 64 64"><path fill="#e0e0de" d="M58,32v6a4,4,0,0,1-4,4H10a4,4,0,0,1-4-4V32Z"/><path fill="#3d4d62" d="M58,9V32H6V8A2,2,0,0,1,8,6H55A3,3,0,0,1,58,9Z"/><polygon fill="#d3d3d1" points="41 54 23 54 25 42 39 42 41 54"/><rect width="28" height="4" x="18" y="54" fill="#e0e0de" rx="2"/><path fill="#1f2731" d="M55,5H51.77a1,1,0,0,0,0,2H55a2,2,0,0,1,2,2V31H7V8A1,1,0,0,1,8,7H48.06a1,1,0,0,0,0-2H8A3,3,0,0,0,5,8V38a1,1,0,0,0,2,0V33H57v5a3,3,0,0,1-3,3H10a3,3,0,0,1-1.47-.38A1,1,0,0,0,7.17,41a1,1,0,0,0,.38,1.36A5,5,0,0,0,10,43H23.82L22.15,53H20a3,3,0,0,0,0,6H44a3,3,0,0,0,0-6H41.85L40.18,43H54a5,5,0,0,0,5-5V9A4,4,0,0,0,55,5ZM39.82,53H37a1,1,0,1,0,0,2h7a1,1,0,0,1,0,2H20a1,1,0,0,1,0-2H33a1,1,0,1,0,0-2H24.18l1.67-10h12.3Z"/></svg>