<svg xmlns="http://www.w3.org/2000/svg" viewBox="0 0 64 64"><g data-name="Starred Message"><path fill="#0074ff" d="M45.44,53a2.27,2.27,0,0,1-2.24-2.64l.55-3.25a2.23,2.23,0,0,0-.66-2l-2.39-2.3a2.22,2.22,0,0,1-.59-2.3A2.25,2.25,0,0,1,42,39l3.3-.49A2.27,2.27,0,0,0,47,37.23l1.47-3a2.29,2.29,0,0,1,4.09,0l1.48,3a2.32,2.32,0,0,0,1.73,1.23l3.3.46a2.25,2.25,0,0,1,1.85,1.54,2.21,2.21,0,0,1-.57,2.3l-2.39,2.32a2.26,2.26,0,0,0-.65,2l.58,3.25A2.28,2.28,0,0,1,55.6,53h0a2.3,2.3,0,0,1-1.05-.26l-3-1.52a2.28,2.28,0,0,0-1.06-.26,2.35,2.35,0,0,0-1.07.26l-2.94,1.55A2.3,2.3,0,0,1,45.44,53Z"/><path fill="#ccd3eb" d="M57,18V38.62l-1.27-.18A2.28,2.28,0,0,1,54,37.21l-1.49-3a2.29,2.29,0,0,0-4.09,0l-1.47,3a2.27,2.27,0,0,1-1.71,1.24L42,39a2.25,2.25,0,0,0-1.25,3.85l2.39,2.3a2.23,2.23,0,0,1,.66,2L43.26,50H11a4,4,0,0,1-4-4V18a4,4,0,0,1,1.72-3.28L29.17,35.17a4,4,0,0,0,5.66,0L55.28,14.72A4,4,0,0,1,57,18Z"/><path fill="#f5f7ff" d="M55.28,14.72,34.83,35.17a4,4,0,0,1-5.66,0L8.72,14.72A4,4,0,0,1,11,14H53A4,4,0,0,1,55.28,14.72Z"/><path fill="#033c59" d="M7,41a1,1,0,0,0,1-1V36a1,1,0,0,0-2,0v4A1,1,0,0,0,7,41Z"/><path fill="#033c59" d="M61,43.46a3.21,3.21,0,0,0,.83-3.33,3.25,3.25,0,0,0-2.66-2.22L58,37.75V18a5,5,0,0,0-5-5H11a5,5,0,0,0-5,5V32a1,1,0,0,0,2,0V18a3,3,0,0,1,.69-1.89L28.46,35.88a5,5,0,0,0,7.08,0L55.31,16.11A3,3,0,0,1,56,18V37.47l-.13,0a1.28,1.28,0,0,1-1-.69l-1.49-3A3.26,3.26,0,0,0,50.48,32h0a3.27,3.27,0,0,0-2.94,1.82l-.92,1.87a1,1,0,0,0,1.79.89l.93-1.87A1.25,1.25,0,0,1,50.48,34h0a1.26,1.26,0,0,1,1.15.7l1.48,3a3.28,3.28,0,0,0,2.48,1.77l3.3.46a1.24,1.24,0,0,1,1,.86A1.22,1.22,0,0,1,59.61,42l-2.39,2.31a3.23,3.23,0,0,0-.93,2.89l.57,3.26a1.22,1.22,0,0,1-.49,1.22,1.26,1.26,0,0,1-1.37.1l-3-1.52a3.32,3.32,0,0,0-3,0l-3,1.55a1.28,1.28,0,0,1-1.36-.1,1.22,1.22,0,0,1-.5-1.22l.55-3.26a3.26,3.26,0,0,0-1-2.88l-2.4-2.3a1.21,1.21,0,0,1-.33-1.27,1.25,1.25,0,0,1,1-.87L45,39.52a1,1,0,1,0-.29-2L41.8,38A3.26,3.26,0,0,0,40,43.54l2.4,2.29a1.25,1.25,0,0,1,.37,1.11L42.42,49H11a3,3,0,0,1-3-3V44a1,1,0,0,0-2,0v2a5,5,0,0,0,5,5H42.18a3.27,3.27,0,0,0,3.26,3A3.37,3.37,0,0,0,47,53.62l3-1.55a1.3,1.3,0,0,1,1.2,0l3,1.53a3.26,3.26,0,0,0,3.46-.27,3.21,3.21,0,0,0,1.28-3.18l-.57-3.26a1.22,1.22,0,0,1,.36-1.1Zm-26.88-9a3.06,3.06,0,0,1-4.24,0L10.47,15.05A3.07,3.07,0,0,1,11,15H53a3.07,3.07,0,0,1,.53.05Z"/></g></svg>